<?xml version="1.0" standalone="no"?>
<!DOCTYPE svg PUBLIC "-//W3C//DTD SVG 20010904//EN"
 "http://www.w3.org/TR/2001/REC-SVG-20010904/DTD/svg10.dtd">
<svg version="1.0" xmlns="http://www.w3.org/2000/svg"
 width="1280.000000pt" height="720.000000pt" viewBox="0 0 1280.000000 720.000000"
 preserveAspectRatio="xMidYMid meet">

<g transform="translate(0.000000,720.000000) scale(0.100000,-0.100000)"
fill="#000000" stroke="none">
<path d="M7605 6081 c-11 -5 -285 -383 -609 -840 -323 -458 -593 -830 -600
-828 -6 2 -122 158 -258 347 -136 189 -254 350 -261 357 -10 11 -124 13 -585
11 l-571 -3 128 -180 c555 -782 753 -1061 849 -1194 62 -85 112 -157 112 -161
0 -7 -74 -111 -1126 -1590 -320 -448 -586 -825 -592 -837 -15 -28 -7 -47 24
-62 34 -15 1033 -16 1066 0 13 6 283 375 614 837 324 455 596 827 603 827 7 0
126 -160 265 -355 l252 -355 572 -3 c384 -1 572 1 572 8 0 9 -662 940 -979
1377 -66 92 -102 149 -99 160 3 10 383 545 844 1188 462 644 850 1185 863
1203 30 43 23 76 -20 91 -38 13 -1032 14 -1064 2z"/>
</g>
</svg>
